<?xml version="1.0" encoding="UTF-8" standalone="no"?>
<!DOCTYPE svg PUBLIC "-//W3C//DTD SVG 1.1//EN"
 "http://www.w3.org/Graphics/SVG/1.1/DTD/svg11.dtd">
<!-- Generated by graphviz version 2.32.0 (20130801.1928)
 -->
<!-- Title: models_diagram Pages: 1 -->
<svg width="854pt" height="696pt"
 viewBox="0.00 0.00 854.32 696.00" xmlns="http://www.w3.org/2000/svg" xmlns:xlink="http://www.w3.org/1999/xlink">
<g id="graph0" class="graph" transform="scale(1 1) rotate(0) translate(4 692)">
<title>models_diagram</title>
<polygon fill="white" stroke="white" points="-4,5 -4,-692 851.317,-692 851.317,5 -4,5"/>
<!-- _diagram_info -->
<g id="node1" class="node"><title>_diagram_info</title>
<text text-anchor="start" x="159" y="-673.6" font-family="Times,serif" font-size="13.00">Models diagram</text>
<text text-anchor="start" x="159" y="-659.6" font-family="Times,serif" font-size="13.00">Date: Sep 01 2013 &#45; 12:12</text>
<text text-anchor="start" x="159" y="-645.6" font-family="Times,serif" font-size="13.00">Migration version: 20130901073423</text>
<text text-anchor="start" x="159" y="-631.6" font-family="Times,serif" font-size="13.00">Generated by RailRoady 1.1.1</text>
<text text-anchor="start" x="159" y="-617.6" font-family="Times,serif" font-size="13.00">http://railroady.prestonlee.com</text>
</g>
<!-- Agent -->
<g id="node2" class="node"><title>Agent</title>
<path fill="none" stroke="black" d="M102,-437.5C102,-437.5 212,-437.5 212,-437.5 218,-437.5 224,-443.5 224,-449.5 224,-449.5 224,-546.5 224,-546.5 224,-552.5 218,-558.5 212,-558.5 212,-558.5 102,-558.5 102,-558.5 96,-558.5 90,-552.5 90,-546.5 90,-546.5 90,-449.5 90,-449.5 90,-443.5 96,-437.5 102,-437.5"/>
<text text-anchor="middle" x="157" y="-543.3" font-family="Times,serif" font-size="14.00">Agent</text>
<polyline fill="none" stroke="black" points="90,-535.5 224,-535.5 "/>
<text text-anchor="start" x="98" y="-520.3" font-family="Times,serif" font-size="14.00">id :integer</text>
<text text-anchor="start" x="98" y="-505.3" font-family="Times,serif" font-size="14.00">nom :string</text>
<text text-anchor="start" x="98" y="-490.3" font-family="Times,serif" font-size="14.00">email :text</text>
<text text-anchor="start" x="98" y="-475.3" font-family="Times,serif" font-size="14.00">telephone :string</text>
<text text-anchor="start" x="98" y="-460.3" font-family="Times,serif" font-size="14.00">created_at :datetime</text>
<text text-anchor="start" x="98" y="-445.3" font-family="Times,serif" font-size="14.00">updated_at :datetime</text>
</g>
<!-- Client -->
<g id="node3" class="node"><title>Client</title>
<path fill="none" stroke="black" d="M12,-159C12,-159 122,-159 122,-159 128,-159 134,-165 134,-171 134,-171 134,-373 134,-373 134,-379 128,-385 122,-385 122,-385 12,-385 12,-385 6,-385 0,-379 0,-373 0,-373 0,-171 0,-171 0,-165 6,-159 12,-159"/>
<text text-anchor="middle" x="67" y="-369.8" font-family="Times,serif" font-size="14.00">Client</text>
<polyline fill="none" stroke="black" points="0,-362 134,-362 "/>
<text text-anchor="start" x="8" y="-346.8" font-family="Times,serif" font-size="14.00">id :integer</text>
<text text-anchor="start" x="8" y="-331.8" font-family="Times,serif" font-size="14.00">societe :string</text>
<text text-anchor="start" x="8" y="-316.8" font-family="Times,serif" font-size="14.00">nom :string</text>
<text text-anchor="start" x="8" y="-301.8" font-family="Times,serif" font-size="14.00">siret :string</text>
<text text-anchor="start" x="8" y="-286.8" font-family="Times,serif" font-size="14.00">tva :string</text>
<text text-anchor="start" x="8" y="-271.8" font-family="Times,serif" font-size="14.00">email :string</text>
<text text-anchor="start" x="8" y="-256.8" font-family="Times,serif" font-size="14.00">telephone :string</text>
<text text-anchor="start" x="8" y="-241.8" font-family="Times,serif" font-size="14.00">adresse_1 :text</text>
<text text-anchor="start" x="8" y="-226.8" font-family="Times,serif" font-size="14.00">adresse_2 :text</text>
<text text-anchor="start" x="8" y="-211.8" font-family="Times,serif" font-size="14.00">agent_id :integer</text>
<text text-anchor="start" x="8" y="-196.8" font-family="Times,serif" font-size="14.00">created_at :datetime</text>
<text text-anchor="start" x="8" y="-181.8" font-family="Times,serif" font-size="14.00">updated_at :datetime</text>
<text text-anchor="start" x="8" y="-166.8" font-family="Times,serif" font-size="14.00">has_tva :boolean</text>
</g>
<!-- Agent&#45;&gt;Client -->
<g id="edge1" class="edge"><title>Agent&#45;&gt;Client</title>
<path fill="none" stroke="#343142" d="M129.922,-429.605C125.48,-418.55 120.76,-406.802 115.98,-394.905"/>
<ellipse fill="none" stroke="#343142" cx="131.509" cy="-433.555" rx="4.00001" ry="4.00001"/>
<polygon fill="#343142" stroke="#343142" points="115.865,-394.62 116.313,-383.663 114.001,-389.98 112.137,-385.341 112.137,-385.341 112.137,-385.341 114.001,-389.98 107.961,-387.019 115.865,-394.62 115.865,-394.62"/>
</g>
<!-- Patron -->
<g id="node7" class="node"><title>Patron</title>
<path fill="none" stroke="black" d="M173,-189C173,-189 283,-189 283,-189 289,-189 295,-195 295,-201 295,-201 295,-343 295,-343 295,-349 289,-355 283,-355 283,-355 173,-355 173,-355 167,-355 161,-349 161,-343 161,-343 161,-201 161,-201 161,-195 167,-189 173,-189"/>
<text text-anchor="middle" x="228" y="-339.8" font-family="Times,serif" font-size="14.00">Patron</text>
<polyline fill="none" stroke="black" points="161,-332 295,-332 "/>
<text text-anchor="start" x="169" y="-316.8" font-family="Times,serif" font-size="14.00">id :integer</text>
<text text-anchor="start" x="169" y="-301.8" font-family="Times,serif" font-size="14.00">societe :string</text>
<text text-anchor="start" x="169" y="-286.8" font-family="Times,serif" font-size="14.00">siret :string</text>
<text text-anchor="start" x="169" y="-271.8" font-family="Times,serif" font-size="14.00">tva :string</text>
<text text-anchor="start" x="169" y="-256.8" font-family="Times,serif" font-size="14.00">capital :float</text>
<text text-anchor="start" x="169" y="-241.8" font-family="Times,serif" font-size="14.00">adresse :text</text>
<text text-anchor="start" x="169" y="-226.8" font-family="Times,serif" font-size="14.00">agent_id :integer</text>
<text text-anchor="start" x="169" y="-211.8" font-family="Times,serif" font-size="14.00">created_at :datetime</text>
<text text-anchor="start" x="169" y="-196.8" font-family="Times,serif" font-size="14.00">updated_at :datetime</text>
</g>
<!-- Agent&#45;&gt;Patron -->
<g id="edge2" class="edge"><title>Agent&#45;&gt;Patron</title>
<path fill="none" stroke="#1dfc10" d="M178.404,-429.473C185.024,-408.585 192.426,-385.233 199.45,-363.073"/>
<ellipse fill="none" stroke="#1dfc10" cx="177.142" cy="-433.453" rx="4.00001" ry="4.00001"/>
<ellipse fill="#1dfc10" stroke="#1dfc10" cx="200.708" cy="-359.103" rx="4.00001" ry="4.00001"/>
</g>
<!-- Commande -->
<g id="node4" class="node"><title>Commande</title>
<path fill="none" stroke="black" d="M482.5,-166.5C482.5,-166.5 621.5,-166.5 621.5,-166.5 627.5,-166.5 633.5,-172.5 633.5,-178.5 633.5,-178.5 633.5,-365.5 633.5,-365.5 633.5,-371.5 627.5,-377.5 621.5,-377.5 621.5,-377.5 482.5,-377.5 482.5,-377.5 476.5,-377.5 470.5,-371.5 470.5,-365.5 470.5,-365.5 470.5,-178.5 470.5,-178.5 470.5,-172.5 476.5,-166.5 482.5,-166.5"/>
<text text-anchor="middle" x="552" y="-362.3" font-family="Times,serif" font-size="14.00">Commande</text>
<polyline fill="none" stroke="black" points="470.5,-354.5 633.5,-354.5 "/>
<text text-anchor="start" x="478.5" y="-339.3" font-family="Times,serif" font-size="14.00">id :integer</text>
<text text-anchor="start" x="478.5" y="-324.3" font-family="Times,serif" font-size="14.00">client_id :integer</text>
<text text-anchor="start" x="478.5" y="-309.3" font-family="Times,serif" font-size="14.00">livraison :date</text>
<text text-anchor="start" x="478.5" y="-294.3" font-family="Times,serif" font-size="14.00">commentaire :text</text>
<text text-anchor="start" x="478.5" y="-279.3" font-family="Times,serif" font-size="14.00">status :integer</text>
<text text-anchor="start" x="478.5" y="-264.3" font-family="Times,serif" font-size="14.00">production_id :integer</text>
<text text-anchor="start" x="478.5" y="-249.3" font-family="Times,serif" font-size="14.00">created_at :datetime</text>
<text text-anchor="start" x="478.5" y="-234.3" font-family="Times,serif" font-size="14.00">updated_at :datetime</text>
<text text-anchor="start" x="478.5" y="-219.3" font-family="Times,serif" font-size="14.00">frais_de_port :float</text>
<text text-anchor="start" x="478.5" y="-204.3" font-family="Times,serif" font-size="14.00">nombre_paiments :integer</text>
<text text-anchor="start" x="478.5" y="-189.3" font-family="Times,serif" font-size="14.00">numero_facture :integer</text>
<text text-anchor="start" x="478.5" y="-174.3" font-family="Times,serif" font-size="14.00">date_facturation :date</text>
</g>
<!-- Quantite -->
<g id="node9" class="node"><title>Quantite</title>
<path fill="none" stroke="black" d="M542.5,-0.5C542.5,-0.5 671.5,-0.5 671.5,-0.5 677.5,-0.5 683.5,-6.5 683.5,-12.5 683.5,-12.5 683.5,-109.5 683.5,-109.5 683.5,-115.5 677.5,-121.5 671.5,-121.5 671.5,-121.5 542.5,-121.5 542.5,-121.5 536.5,-121.5 530.5,-115.5 530.5,-109.5 530.5,-109.5 530.5,-12.5 530.5,-12.5 530.5,-6.5 536.5,-0.5 542.5,-0.5"/>
<text text-anchor="middle" x="607" y="-106.3" font-family="Times,serif" font-size="14.00">Quantite</text>
<polyline fill="none" stroke="black" points="530.5,-98.5 683.5,-98.5 "/>
<text text-anchor="start" x="538.5" y="-83.3" font-family="Times,serif" font-size="14.00">id :integer</text>
<text text-anchor="start" x="538.5" y="-68.3" font-family="Times,serif" font-size="14.00">quantifiable_id :integer</text>
<text text-anchor="start" x="538.5" y="-53.3" font-family="Times,serif" font-size="14.00">quantifiable_type :string</text>
<text text-anchor="start" x="538.5" y="-38.3" font-family="Times,serif" font-size="14.00">detail :text</text>
<text text-anchor="start" x="538.5" y="-23.3" font-family="Times,serif" font-size="14.00">created_at :datetime</text>
<text text-anchor="start" x="538.5" y="-8.3" font-family="Times,serif" font-size="14.00">updated_at :datetime</text>
</g>
<!-- Commande&#45;&gt;Quantite -->
<g id="edge5" class="edge"><title>Commande&#45;&gt;Quantite</title>
<path fill="none" stroke="#63794f" d="M581.652,-158.324C584.22,-148.565 586.763,-138.902 589.19,-129.678"/>
<ellipse fill="none" stroke="#63794f" cx="580.599" cy="-162.326" rx="4.00001" ry="4.00001"/>
<ellipse fill="#63794f" stroke="#63794f" cx="590.273" cy="-125.562" rx="4.00001" ry="4.00001"/>
</g>
<!-- Couleur -->
<g id="node5" class="node"><title>Couleur</title>
<path fill="none" stroke="black" d="M292,-445C292,-445 402,-445 402,-445 408,-445 414,-451 414,-457 414,-457 414,-539 414,-539 414,-545 408,-551 402,-551 402,-551 292,-551 292,-551 286,-551 280,-545 280,-539 280,-539 280,-457 280,-457 280,-451 286,-445 292,-445"/>
<text text-anchor="middle" x="347" y="-535.8" font-family="Times,serif" font-size="14.00">Couleur</text>
<polyline fill="none" stroke="black" points="280,-528 414,-528 "/>
<text text-anchor="start" x="288" y="-512.8" font-family="Times,serif" font-size="14.00">id :integer</text>
<text text-anchor="start" x="288" y="-497.8" font-family="Times,serif" font-size="14.00">nom :string</text>
<text text-anchor="start" x="288" y="-482.8" font-family="Times,serif" font-size="14.00">saison_id :integer</text>
<text text-anchor="start" x="288" y="-467.8" font-family="Times,serif" font-size="14.00">created_at :datetime</text>
<text text-anchor="start" x="288" y="-452.8" font-family="Times,serif" font-size="14.00">updated_at :datetime</text>
</g>
<!-- Modele -->
<g id="node6" class="node"><title>Modele</title>
<path fill="none" stroke="black" d="M672,-422.5C672,-422.5 782,-422.5 782,-422.5 788,-422.5 794,-428.5 794,-434.5 794,-434.5 794,-561.5 794,-561.5 794,-567.5 788,-573.5 782,-573.5 782,-573.5 672,-573.5 672,-573.5 666,-573.5 660,-567.5 660,-561.5 660,-561.5 660,-434.5 660,-434.5 660,-428.5 666,-422.5 672,-422.5"/>
<text text-anchor="middle" x="727" y="-558.3" font-family="Times,serif" font-size="14.00">Modele</text>
<polyline fill="none" stroke="black" points="660,-550.5 794,-550.5 "/>
<text text-anchor="start" x="668" y="-535.3" font-family="Times,serif" font-size="14.00">id :integer</text>
<text text-anchor="start" x="668" y="-520.3" font-family="Times,serif" font-size="14.00">numero :string</text>
<text text-anchor="start" x="668" y="-505.3" font-family="Times,serif" font-size="14.00">nom :string</text>
<text text-anchor="start" x="668" y="-490.3" font-family="Times,serif" font-size="14.00">taille_min :string</text>
<text text-anchor="start" x="668" y="-475.3" font-family="Times,serif" font-size="14.00">taille_max :string</text>
<text text-anchor="start" x="668" y="-460.3" font-family="Times,serif" font-size="14.00">prix :float</text>
<text text-anchor="start" x="668" y="-445.3" font-family="Times,serif" font-size="14.00">created_at :datetime</text>
<text text-anchor="start" x="668" y="-430.3" font-family="Times,serif" font-size="14.00">updated_at :datetime</text>
</g>
<!-- Version -->
<g id="node11" class="node"><title>Version</title>
<path fill="none" stroke="black" d="M702,-211.5C702,-211.5 820,-211.5 820,-211.5 826,-211.5 832,-217.5 832,-223.5 832,-223.5 832,-320.5 832,-320.5 832,-326.5 826,-332.5 820,-332.5 820,-332.5 702,-332.5 702,-332.5 696,-332.5 690,-326.5 690,-320.5 690,-320.5 690,-223.5 690,-223.5 690,-217.5 696,-211.5 702,-211.5"/>
<text text-anchor="middle" x="761" y="-317.3" font-family="Times,serif" font-size="14.00">Version</text>
<polyline fill="none" stroke="black" points="690,-309.5 832,-309.5 "/>
<text text-anchor="start" x="698" y="-294.3" font-family="Times,serif" font-size="14.00">id :integer</text>
<text text-anchor="start" x="698" y="-279.3" font-family="Times,serif" font-size="14.00">modele_id :integer</text>
<text text-anchor="start" x="698" y="-264.3" font-family="Times,serif" font-size="14.00">couleurs_1_id :integer</text>
<text text-anchor="start" x="698" y="-249.3" font-family="Times,serif" font-size="14.00">couleurs_2_id :integer</text>
<text text-anchor="start" x="698" y="-234.3" font-family="Times,serif" font-size="14.00">created_at :datetime</text>
<text text-anchor="start" x="698" y="-219.3" font-family="Times,serif" font-size="14.00">updated_at :datetime</text>
</g>
<!-- Modele&#45;&gt;Version -->
<g id="edge8" class="edge"><title>Modele&#45;&gt;Version</title>
<path fill="none" stroke="#3c6bf1" d="M739.527,-414.47C743.108,-390.879 746.974,-365.409 750.425,-342.669"/>
<ellipse fill="none" stroke="#3c6bf1" cx="738.922" cy="-418.457" rx="4.00001" ry="4.00001"/>
<polygon fill="#3c6bf1" stroke="#3c6bf1" points="750.427,-342.655 756.377,-333.443 751.178,-337.711 751.928,-332.768 751.928,-332.768 751.928,-332.768 751.178,-337.711 747.479,-332.093 750.427,-342.655 750.427,-342.655"/>
</g>
<!-- Production -->
<g id="node8" class="node"><title>Production</title>
<path fill="none" stroke="black" d="M520,-460C520,-460 630,-460 630,-460 636,-460 642,-466 642,-472 642,-472 642,-524 642,-524 642,-530 636,-536 630,-536 630,-536 520,-536 520,-536 514,-536 508,-530 508,-524 508,-524 508,-472 508,-472 508,-466 514,-460 520,-460"/>
<text text-anchor="middle" x="575" y="-520.8" font-family="Times,serif" font-size="14.00">Production</text>
<polyline fill="none" stroke="black" points="508,-513 642,-513 "/>
<text text-anchor="start" x="516" y="-497.8" font-family="Times,serif" font-size="14.00">id :integer</text>
<text text-anchor="start" x="516" y="-482.8" font-family="Times,serif" font-size="14.00">created_at :datetime</text>
<text text-anchor="start" x="516" y="-467.8" font-family="Times,serif" font-size="14.00">updated_at :datetime</text>
</g>
<!-- Production&#45;&gt;Commande -->
<g id="edge11" class="edge"><title>Production&#45;&gt;Commande</title>
<path fill="none" stroke="#e11390" d="M570.358,-451.788C568.436,-433.068 566.111,-410.425 563.771,-387.637"/>
<ellipse fill="none" stroke="#e11390" cx="570.768" cy="-455.78" rx="4" ry="4"/>
<polygon fill="#e11390" stroke="#e11390" points="563.754,-387.471 567.209,-377.064 563.243,-382.497 562.732,-377.523 562.732,-377.523 562.732,-377.523 563.243,-382.497 558.256,-377.983 563.754,-387.471 563.754,-387.471"/>
</g>
<!-- Production&#45;&gt;Quantite -->
<g id="edge12" class="edge"><title>Production&#45;&gt;Quantite</title>
<path fill="none" stroke="#4aa7b6" d="M609.03,-453.16C622.048,-433.713 635.357,-409.859 642,-386 669.178,-288.379 659.623,-257.789 642,-158 640.337,-148.583 637.822,-138.875 634.888,-129.416"/>
<ellipse fill="none" stroke="#4aa7b6" cx="606.71" cy="-456.547" rx="4.00002" ry="4.00002"/>
<ellipse fill="#4aa7b6" stroke="#4aa7b6" cx="633.569" cy="-125.347" rx="4.00001" ry="4.00001"/>
</g>
<!-- Stock -->
<g id="node10" class="node"><title>Stock</title>
<path fill="none" stroke="black" d="M330,-234C330,-234 440,-234 440,-234 446,-234 452,-240 452,-246 452,-246 452,-298 452,-298 452,-304 446,-310 440,-310 440,-310 330,-310 330,-310 324,-310 318,-304 318,-298 318,-298 318,-246 318,-246 318,-240 324,-234 330,-234"/>
<text text-anchor="middle" x="385" y="-294.8" font-family="Times,serif" font-size="14.00">Stock</text>
<polyline fill="none" stroke="black" points="318,-287 452,-287 "/>
<text text-anchor="start" x="326" y="-271.8" font-family="Times,serif" font-size="14.00">id :integer</text>
<text text-anchor="start" x="326" y="-256.8" font-family="Times,serif" font-size="14.00">created_at :datetime</text>
<text text-anchor="start" x="326" y="-241.8" font-family="Times,serif" font-size="14.00">updated_at :datetime</text>
</g>
<!-- Stock&#45;&gt;Quantite -->
<g id="edge15" class="edge"><title>Stock&#45;&gt;Quantite</title>
<path fill="none" stroke="#7ee1d9" d="M409.029,-226.859C422.467,-204.627 440.605,-178.183 461,-158 479.386,-139.804 501.723,-123.079 523.338,-108.864"/>
<ellipse fill="none" stroke="#7ee1d9" cx="406.878" cy="-230.477" rx="4.00002" ry="4.00002"/>
<ellipse fill="#7ee1d9" stroke="#7ee1d9" cx="526.967" cy="-106.512" rx="4.00002" ry="4.00002"/>
</g>
<!-- ActiveRecord::Base -->
<g id="node12" class="node"><title>ActiveRecord::Base</title>
<ellipse fill="none" stroke="black" cx="461" cy="-649" rx="83.2649" ry="18"/>
<text text-anchor="middle" x="461" y="-645.3" font-family="Times,serif" font-size="14.00">ActiveRecord::Base</text>
</g>
<!-- ActiveRecord::Base&#45;&gt;Agent -->
<g id="edge3" class="edge"><title>ActiveRecord::Base&#45;&gt;Agent</title>
<path fill="none" stroke="black" d="M426.041,-632.575C408.758,-625.243 387.477,-616.65 368,-610 311.264,-590.628 290.365,-603.192 238,-574 230.132,-569.614 222.423,-564.311 215.08,-558.574"/>
</g>
<!-- ActiveRecord::Base&#45;&gt;Client -->
<g id="edge4" class="edge"><title>ActiveRecord::Base&#45;&gt;Client</title>
<path fill="none" stroke="black" d="M428.581,-632.292C411.032,-624.424 388.752,-615.439 368,-610 305.823,-593.703 124.637,-621.195 81,-574 35.1858,-524.45 31.9888,-448.407 40.0921,-385.152"/>
</g>
<!-- ActiveRecord::Base&#45;&gt;Commande -->
<g id="edge6" class="edge"><title>ActiveRecord::Base&#45;&gt;Commande</title>
<path fill="none" stroke="black" d="M462.852,-630.774C467.173,-592.689 479.092,-498.632 499,-422 502.762,-407.517 507.325,-392.448 512.176,-377.698"/>
</g>
<!-- ActiveRecord::Base&#45;&gt;Couleur -->
<g id="edge7" class="edge"><title>ActiveRecord::Base&#45;&gt;Couleur</title>
<path fill="none" stroke="black" d="M448.144,-631.197C433.354,-611.866 408.346,-579.18 386.898,-551.147"/>
</g>
<!-- ActiveRecord::Base&#45;&gt;Modele -->
<g id="edge9" class="edge"><title>ActiveRecord::Base&#45;&gt;Modele</title>
<path fill="none" stroke="black" d="M511.254,-634.571C551.167,-622.502 607.333,-602.304 651,-574 653.956,-572.084 656.891,-570.04 659.793,-567.896"/>
</g>
<!-- ActiveRecord::Base&#45;&gt;Patron -->
<g id="edge10" class="edge"><title>ActiveRecord::Base&#45;&gt;Patron</title>
<path fill="none" stroke="black" d="M424.449,-632.744C407.354,-625.692 386.689,-617.284 368,-610 325.155,-593.301 299.867,-609.795 271,-574 244.573,-541.23 234.384,-432.45 230.458,-355.097"/>
</g>
<!-- ActiveRecord::Base&#45;&gt;Production -->
<g id="edge13" class="edge"><title>ActiveRecord::Base&#45;&gt;Production</title>
<path fill="none" stroke="black" d="M473.856,-631.197C491.383,-608.289 523.259,-566.626 546.555,-536.178"/>
</g>
<!-- ActiveRecord::Base&#45;&gt;Quantite -->
<g id="edge14" class="edge"><title>ActiveRecord::Base&#45;&gt;Quantite</title>
<path fill="none" stroke="black" d="M540.347,-643.254C637.536,-635.635 793.87,-616.913 831,-574 853.537,-547.953 845.627,-164.9 841,-158 806.148,-106.031 737.592,-82.1729 683.652,-71.2325"/>
</g>
<!-- ActiveRecord::Base&#45;&gt;Stock -->
<g id="edge16" class="edge"><title>ActiveRecord::Base&#45;&gt;Stock</title>
<path fill="none" stroke="black" d="M458.621,-630.898C453.248,-593.06 439.361,-499.467 423,-422 414.891,-383.604 403.565,-340.174 395.39,-310.151"/>
</g>
<!-- ActiveRecord::Base&#45;&gt;Version -->
<g id="edge17" class="edge"><title>ActiveRecord::Base&#45;&gt;Version</title>
<path fill="none" stroke="black" d="M538.684,-642.276C629.162,-633.805 770.434,-614.366 803,-574 858.162,-505.626 823.804,-398.866 793.038,-332.575"/>
</g>
</g>
</svg>
