<?xml version="1.0" encoding="UTF-8" standalone="no"?>
<!DOCTYPE svg PUBLIC "-//W3C//DTD SVG 1.1//EN"
 "http://www.w3.org/Graphics/SVG/1.1/DTD/svg11.dtd">
<!-- Generated by graphviz version 2.32.0 (20130801.1928)
 -->
<!-- Title: models_diagram Pages: 1 -->
<svg width="619pt" height="302pt"
 viewBox="0.00 0.00 619.43 302.00" xmlns="http://www.w3.org/2000/svg" xmlns:xlink="http://www.w3.org/1999/xlink">
<g id="graph0" class="graph" transform="scale(1 1) rotate(0) translate(4 298)">
<title>models_diagram</title>
<polygon fill="white" stroke="white" points="-4,5 -4,-298 616.429,-298 616.429,5 -4,5"/>
<!-- _diagram_info -->
<g id="node1" class="node"><title>_diagram_info</title>
<text text-anchor="start" x="8" y="-279.6" font-family="Times,serif" font-size="13.00">Models diagram</text>
<text text-anchor="start" x="8" y="-265.6" font-family="Times,serif" font-size="13.00">Date: Sep 01 2013 &#45; 12:12</text>
<text text-anchor="start" x="8" y="-251.6" font-family="Times,serif" font-size="13.00">Migration version: 20130901073423</text>
<text text-anchor="start" x="8" y="-237.6" font-family="Times,serif" font-size="13.00">Generated by RailRoady 1.1.1</text>
<text text-anchor="start" x="8" y="-223.6" font-family="Times,serif" font-size="13.00">http://railroady.prestonlee.com</text>
</g>
<!-- Agent -->
<g id="node2" class="node"><title>Agent</title>
<ellipse fill="none" stroke="black" cx="94" cy="-162" rx="33.2209" ry="18"/>
<text text-anchor="middle" x="94" y="-158.3" font-family="Times,serif" font-size="14.00">Agent</text>
</g>
<!-- Client -->
<g id="node3" class="node"><title>Client</title>
<ellipse fill="none" stroke="black" cx="42" cy="-90" rx="33.2209" ry="18"/>
<text text-anchor="middle" x="42" y="-86.3" font-family="Times,serif" font-size="14.00">Client</text>
</g>
<!-- Agent&#45;&gt;Client -->
<g id="edge1" class="edge"><title>Agent&#45;&gt;Client</title>
<path fill="none" stroke="#aa56ee" d="M77.2178,-138.409C71.8102,-131.129 65.7915,-123.027 60.2814,-115.61"/>
<ellipse fill="none" stroke="#aa56ee" cx="79.8151" cy="-141.905" rx="4.00002" ry="4.00002"/>
<polygon fill="#aa56ee" stroke="#aa56ee" points="60.077,-115.334 57.7261,-104.624 57.0954,-111.321 54.1138,-107.307 54.1138,-107.307 54.1138,-107.307 57.0954,-111.321 50.5014,-109.99 60.077,-115.334 60.077,-115.334"/>
</g>
<!-- Patron -->
<g id="node7" class="node"><title>Patron</title>
<ellipse fill="none" stroke="black" cx="146" cy="-90" rx="34.1708" ry="18"/>
<text text-anchor="middle" x="146" y="-86.3" font-family="Times,serif" font-size="14.00">Patron</text>
</g>
<!-- Agent&#45;&gt;Patron -->
<g id="edge2" class="edge"><title>Agent&#45;&gt;Patron</title>
<path fill="none" stroke="#9543eb" d="M110.782,-138.409C116.543,-130.654 122.996,-121.967 128.79,-114.167"/>
<ellipse fill="none" stroke="#9543eb" cx="108.185" cy="-141.905" rx="4.00002" ry="4.00002"/>
<ellipse fill="#9543eb" stroke="#9543eb" cx="131.501" cy="-110.518" rx="4.00002" ry="4.00002"/>
</g>
<!-- Commande -->
<g id="node4" class="node"><title>Commande</title>
<ellipse fill="none" stroke="black" cx="393" cy="-90" rx="52.4675" ry="18"/>
<text text-anchor="middle" x="393" y="-86.3" font-family="Times,serif" font-size="14.00">Commande</text>
</g>
<!-- Quantite -->
<g id="node9" class="node"><title>Quantite</title>
<ellipse fill="none" stroke="black" cx="433" cy="-18" rx="42.3701" ry="18"/>
<text text-anchor="middle" x="433" y="-14.3" font-family="Times,serif" font-size="14.00">Quantite</text>
</g>
<!-- Commande&#45;&gt;Quantite -->
<g id="edge5" class="edge"><title>Commande&#45;&gt;Quantite</title>
<path fill="none" stroke="#9e3769" d="M406.716,-64.9976C410.751,-57.9363 415.166,-50.2103 419.205,-43.1405"/>
<ellipse fill="none" stroke="#9e3769" cx="404.667" cy="-68.582" rx="4.00002" ry="4.00002"/>
<ellipse fill="#9e3769" stroke="#9e3769" cx="421.422" cy="-39.262" rx="4.00002" ry="4.00002"/>
</g>
<!-- Couleur -->
<g id="node5" class="node"><title>Couleur</title>
<ellipse fill="none" stroke="black" cx="223" cy="-162" rx="39.9464" ry="18"/>
<text text-anchor="middle" x="223" y="-158.3" font-family="Times,serif" font-size="14.00">Couleur</text>
</g>
<!-- Modele -->
<g id="node6" class="node"><title>Modele</title>
<ellipse fill="none" stroke="black" cx="515" cy="-162" rx="38.0212" ry="18"/>
<text text-anchor="middle" x="515" y="-158.3" font-family="Times,serif" font-size="14.00">Modele</text>
</g>
<!-- Version -->
<g id="node11" class="node"><title>Version</title>
<ellipse fill="none" stroke="black" cx="547" cy="-90" rx="39.4691" ry="18"/>
<text text-anchor="middle" x="547" y="-86.3" font-family="Times,serif" font-size="14.00">Version</text>
</g>
<!-- Modele&#45;&gt;Version -->
<g id="edge8" class="edge"><title>Modele&#45;&gt;Version</title>
<path fill="none" stroke="#e10fb3" d="M526.102,-136.714C528.965,-130.451 532.06,-123.68 534.969,-117.318"/>
<ellipse fill="none" stroke="#e10fb3" cx="524.409" cy="-140.417" rx="4.00002" ry="4.00002"/>
<polygon fill="#e10fb3" stroke="#e10fb3" points="535.167,-116.884 543.418,-109.66 537.246,-112.336 539.325,-107.789 539.325,-107.789 539.325,-107.789 537.246,-112.336 535.232,-105.918 535.167,-116.884 535.167,-116.884"/>
</g>
<!-- Production -->
<g id="node8" class="node"><title>Production</title>
<ellipse fill="none" stroke="black" cx="408" cy="-162" rx="50.5427" ry="18"/>
<text text-anchor="middle" x="408" y="-158.3" font-family="Times,serif" font-size="14.00">Production</text>
</g>
<!-- Production&#45;&gt;Commande -->
<g id="edge11" class="edge"><title>Production&#45;&gt;Commande</title>
<path fill="none" stroke="#4d7e2c" d="M402.566,-135.64C401.34,-129.92 400.034,-123.828 398.795,-118.042"/>
<ellipse fill="none" stroke="#4d7e2c" cx="403.454" cy="-139.785" rx="4.00001" ry="4.00001"/>
<polygon fill="#4d7e2c" stroke="#4d7e2c" points="398.761,-117.882 401.065,-107.161 397.713,-112.993 396.665,-108.104 396.665,-108.104 396.665,-108.104 397.713,-112.993 392.265,-109.047 398.761,-117.882 398.761,-117.882"/>
</g>
<!-- Production&#45;&gt;Quantite -->
<g id="edge12" class="edge"><title>Production&#45;&gt;Quantite</title>
<path fill="none" stroke="#d0c584" d="M433.1,-139.272C441.406,-130.5 449.636,-119.685 454,-108 461.97,-86.658 454.406,-61.2774 446.22,-43.0919"/>
<ellipse fill="none" stroke="#d0c584" cx="430.209" cy="-142.172" rx="4.00002" ry="4.00002"/>
<ellipse fill="#d0c584" stroke="#d0c584" cx="444.443" cy="-39.3794" rx="4.00002" ry="4.00002"/>
</g>
<!-- Stock -->
<g id="node10" class="node"><title>Stock</title>
<ellipse fill="none" stroke="black" cx="291" cy="-90" rx="31.2965" ry="18"/>
<text text-anchor="middle" x="291" y="-86.3" font-family="Times,serif" font-size="14.00">Stock</text>
</g>
<!-- Stock&#45;&gt;Quantite -->
<g id="edge15" class="edge"><title>Stock&#45;&gt;Quantite</title>
<path fill="none" stroke="#96cdfe" d="M321.296,-74.0652C344.088,-62.8297 375.331,-47.4283 398.98,-35.7702"/>
<ellipse fill="none" stroke="#96cdfe" cx="317.403" cy="-75.9846" rx="4.00002" ry="4.00002"/>
<ellipse fill="#96cdfe" stroke="#96cdfe" cx="402.784" cy="-33.8953" rx="4.00002" ry="4.00002"/>
</g>
<!-- ActiveRecord::Base -->
<g id="node12" class="node"><title>ActiveRecord::Base</title>
<ellipse fill="none" stroke="black" cx="310" cy="-255" rx="83.2649" ry="18"/>
<text text-anchor="middle" x="310" y="-251.3" font-family="Times,serif" font-size="14.00">ActiveRecord::Base</text>
</g>
<!-- ActiveRecord::Base&#45;&gt;Agent -->
<g id="edge3" class="edge"><title>ActiveRecord::Base&#45;&gt;Agent</title>
<path fill="none" stroke="black" d="M273.846,-238.769C230.131,-220.351 157.673,-189.825 119.436,-173.716"/>
</g>
<!-- ActiveRecord::Base&#45;&gt;Client -->
<g id="edge4" class="edge"><title>ActiveRecord::Base&#45;&gt;Client</title>
<path fill="none" stroke="black" d="M276.069,-238.481C258.671,-230.95 236.987,-222.212 217,-216 145.324,-193.721 102.274,-235.734 52,-180 34.3996,-160.488 35.6792,-127.951 38.5816,-108.09"/>
</g>
<!-- ActiveRecord::Base&#45;&gt;Commande -->
<g id="edge6" class="edge"><title>ActiveRecord::Base&#45;&gt;Commande</title>
<path fill="none" stroke="black" d="M313.838,-236.772C319.288,-214.381 330.584,-174.539 348,-144 355.654,-130.579 366.904,-117.329 376.24,-107.434"/>
</g>
<!-- ActiveRecord::Base&#45;&gt;Couleur -->
<g id="edge7" class="edge"><title>ActiveRecord::Base&#45;&gt;Couleur</title>
<path fill="none" stroke="black" d="M294.043,-237.309C278.149,-220.685 253.922,-195.343 238.272,-178.975"/>
</g>
<!-- ActiveRecord::Base&#45;&gt;Modele -->
<g id="edge9" class="edge"><title>ActiveRecord::Base&#45;&gt;Modele</title>
<path fill="none" stroke="black" d="M344.775,-238.563C385.328,-220.562 451.481,-191.196 488.238,-174.88"/>
</g>
<!-- ActiveRecord::Base&#45;&gt;Patron -->
<g id="edge10" class="edge"><title>ActiveRecord::Base&#45;&gt;Patron</title>
<path fill="none" stroke="black" d="M275.033,-238.643C239.566,-222.446 187.965,-196.967 174,-180 156.81,-159.114 150.132,-127.603 147.566,-108.218"/>
</g>
<!-- ActiveRecord::Base&#45;&gt;Production -->
<g id="edge13" class="edge"><title>ActiveRecord::Base&#45;&gt;Production</title>
<path fill="none" stroke="black" d="M327.975,-237.309C345.878,-220.685 373.169,-195.343 390.797,-178.975"/>
</g>
<!-- ActiveRecord::Base&#45;&gt;Quantite -->
<g id="edge14" class="edge"><title>ActiveRecord::Base&#45;&gt;Quantite</title>
<path fill="none" stroke="black" d="M375.773,-243.847C446.093,-231.662 551.247,-209.17 579,-180 612.447,-144.845 623.482,-111.286 595,-72 567.817,-34.5058 513.326,-23.0468 475.075,-19.8034"/>
</g>
<!-- ActiveRecord::Base&#45;&gt;Stock -->
<g id="edge16" class="edge"><title>ActiveRecord::Base&#45;&gt;Stock</title>
<path fill="none" stroke="black" d="M308.003,-236.864C304.363,-205.64 296.69,-139.812 293.028,-108.397"/>
</g>
<!-- ActiveRecord::Base&#45;&gt;Version -->
<g id="edge17" class="edge"><title>ActiveRecord::Base&#45;&gt;Version</title>
<path fill="none" stroke="black" d="M375.564,-243.795C442.474,-231.883 539.593,-209.932 562,-180 577.869,-158.801 566.249,-126.804 556.518,-107.505"/>
</g>
</g>
</svg>
