<?xml version="1.0" encoding="UTF-8" standalone="no"?>
<!DOCTYPE svg PUBLIC "-//W3C//DTD SVG 1.1//EN"
 "http://www.w3.org/Graphics/SVG/1.1/DTD/svg11.dtd">
<!-- Generated by graphviz version 2.32.0 (20130801.1928)
 -->
<!-- Title: controllers_diagram Pages: 1 -->
<svg width="912pt" height="896pt"
 viewBox="0.00 0.00 912.00 895.57" xmlns="http://www.w3.org/2000/svg" xmlns:xlink="http://www.w3.org/1999/xlink">
<g id="graph0" class="graph" transform="scale(1 1) rotate(0) translate(4 891.568)">
<title>controllers_diagram</title>
<polygon fill="white" stroke="white" points="-4,5 -4,-891.568 909,-891.568 909,5 -4,5"/>
<!-- _diagram_info -->
<g id="node1" class="node"><title>_diagram_info</title>
<text text-anchor="start" x="704" y="-121.6" font-family="Times,serif" font-size="13.00">Controllers diagram</text>
<text text-anchor="start" x="704" y="-107.6" font-family="Times,serif" font-size="13.00">Date: Sep 01 2013 &#45; 12:12</text>
<text text-anchor="start" x="704" y="-93.6" font-family="Times,serif" font-size="13.00">Migration version: 20130901073423</text>
<text text-anchor="start" x="704" y="-79.6" font-family="Times,serif" font-size="13.00">Generated by RailRoady 1.1.1</text>
<text text-anchor="start" x="704" y="-65.6" font-family="Times,serif" font-size="13.00">http://railroady.prestonlee.com</text>
</g>
<!-- AgentsController -->
<g id="node2" class="node"><title>AgentsController</title>
<path fill="none" stroke="black" d="M22.491,-442.664C22.491,-442.664 112.491,-442.664 112.491,-442.664 118.491,-442.664 124.491,-448.664 124.491,-454.664 124.491,-454.664 124.491,-643.664 124.491,-643.664 124.491,-649.664 118.491,-655.664 112.491,-655.664 112.491,-655.664 22.491,-655.664 22.491,-655.664 16.491,-655.664 10.491,-649.664 10.491,-643.664 10.491,-643.664 10.491,-454.664 10.491,-454.664 10.491,-448.664 16.491,-442.664 22.491,-442.664"/>
<text text-anchor="middle" x="67.491" y="-640.464" font-family="Times,serif" font-size="14.00">AgentsController</text>
<polyline fill="none" stroke="black" points="10.491,-632.664 124.491,-632.664 "/>
<text text-anchor="start" x="18.491" y="-617.464" font-family="Times,serif" font-size="14.00">create</text>
<text text-anchor="start" x="18.491" y="-602.464" font-family="Times,serif" font-size="14.00">destroy</text>
<text text-anchor="start" x="18.491" y="-587.464" font-family="Times,serif" font-size="14.00">edit</text>
<text text-anchor="start" x="18.491" y="-572.464" font-family="Times,serif" font-size="14.00">index</text>
<text text-anchor="start" x="18.491" y="-557.464" font-family="Times,serif" font-size="14.00">new</text>
<text text-anchor="start" x="18.491" y="-542.464" font-family="Times,serif" font-size="14.00">show</text>
<text text-anchor="start" x="18.491" y="-527.464" font-family="Times,serif" font-size="14.00">update</text>
<polyline fill="none" stroke="black" points="10.491,-519.664 124.491,-519.664 "/>
<polyline fill="none" stroke="black" points="10.491,-495.664 124.491,-495.664 "/>
<text text-anchor="start" x="18.491" y="-480.464" font-family="Times,serif" font-size="14.00">_layout</text>
<text text-anchor="start" x="18.491" y="-465.464" font-family="Times,serif" font-size="14.00">agent_params</text>
<text text-anchor="start" x="18.491" y="-450.464" font-family="Times,serif" font-size="14.00">set_agent</text>
</g>
<!-- ApplicationController -->
<g id="node3" class="node"><title>ApplicationController</title>
<path fill="none" stroke="black" d="M246.849,-379.376C246.849,-379.376 362.849,-379.376 362.849,-379.376 368.849,-379.376 374.849,-385.376 374.849,-391.376 374.849,-391.376 374.849,-460.376 374.849,-460.376 374.849,-466.376 368.849,-472.376 362.849,-472.376 362.849,-472.376 246.849,-472.376 246.849,-472.376 240.849,-472.376 234.849,-466.376 234.849,-460.376 234.849,-460.376 234.849,-391.376 234.849,-391.376 234.849,-385.376 240.849,-379.376 246.849,-379.376"/>
<text text-anchor="middle" x="304.849" y="-457.176" font-family="Times,serif" font-size="14.00">ApplicationController</text>
<polyline fill="none" stroke="black" points="234.849,-449.376 374.849,-449.376 "/>
<polyline fill="none" stroke="black" points="234.849,-425.376 374.849,-425.376 "/>
<text text-anchor="start" x="242.849" y="-410.176" font-family="Times,serif" font-size="14.00">authenticate</text>
<polyline fill="none" stroke="black" points="234.849,-402.376 374.849,-402.376 "/>
<text text-anchor="start" x="242.849" y="-387.176" font-family="Times,serif" font-size="14.00">_layout</text>
</g>
<!-- ApplicationController&#45;&gt;AgentsController -->
<g id="edge1" class="edge"><title>ApplicationController&#45;&gt;AgentsController</title>
<path fill="none" stroke="black" d="M234.597,-462.366C199.602,-480.543 157.825,-502.243 124.797,-519.398"/>
</g>
<!-- ClientsController -->
<g id="node4" class="node"><title>ClientsController</title>
<path fill="none" stroke="black" d="M253.972,-25.3124C253.972,-25.3124 343.972,-25.3124 343.972,-25.3124 349.972,-25.3124 355.972,-31.3124 355.972,-37.3124 355.972,-37.3124 355.972,-226.312 355.972,-226.312 355.972,-232.312 349.972,-238.312 343.972,-238.312 343.972,-238.312 253.972,-238.312 253.972,-238.312 247.972,-238.312 241.972,-232.312 241.972,-226.312 241.972,-226.312 241.972,-37.3124 241.972,-37.3124 241.972,-31.3124 247.972,-25.3124 253.972,-25.3124"/>
<text text-anchor="middle" x="298.972" y="-223.112" font-family="Times,serif" font-size="14.00">ClientsController</text>
<polyline fill="none" stroke="black" points="241.972,-215.312 355.972,-215.312 "/>
<text text-anchor="start" x="249.972" y="-200.112" font-family="Times,serif" font-size="14.00">create</text>
<text text-anchor="start" x="249.972" y="-185.112" font-family="Times,serif" font-size="14.00">destroy</text>
<text text-anchor="start" x="249.972" y="-170.112" font-family="Times,serif" font-size="14.00">edit</text>
<text text-anchor="start" x="249.972" y="-155.112" font-family="Times,serif" font-size="14.00">index</text>
<text text-anchor="start" x="249.972" y="-140.112" font-family="Times,serif" font-size="14.00">new</text>
<text text-anchor="start" x="249.972" y="-125.112" font-family="Times,serif" font-size="14.00">show</text>
<text text-anchor="start" x="249.972" y="-110.112" font-family="Times,serif" font-size="14.00">update</text>
<polyline fill="none" stroke="black" points="241.972,-102.312 355.972,-102.312 "/>
<polyline fill="none" stroke="black" points="241.972,-78.3124 355.972,-78.3124 "/>
<text text-anchor="start" x="249.972" y="-63.1124" font-family="Times,serif" font-size="14.00">_layout</text>
<text text-anchor="start" x="249.972" y="-48.1124" font-family="Times,serif" font-size="14.00">client_params</text>
<text text-anchor="start" x="249.972" y="-33.1124" font-family="Times,serif" font-size="14.00">set_client</text>
</g>
<!-- ApplicationController&#45;&gt;ClientsController -->
<g id="edge2" class="edge"><title>ApplicationController&#45;&gt;ClientsController</title>
<path fill="none" stroke="black" d="M303.918,-379.28C303.164,-341.546 302.071,-286.907 301.105,-238.562"/>
</g>
<!-- CommandesController -->
<g id="node5" class="node"><title>CommandesController</title>
<path fill="none" stroke="black" d="M239.733,-626.046C239.733,-626.046 359.733,-626.046 359.733,-626.046 365.733,-626.046 371.733,-632.046 371.733,-638.046 371.733,-638.046 371.733,-827.046 371.733,-827.046 371.733,-833.046 365.733,-839.046 359.733,-839.046 359.733,-839.046 239.733,-839.046 239.733,-839.046 233.733,-839.046 227.733,-833.046 227.733,-827.046 227.733,-827.046 227.733,-638.046 227.733,-638.046 227.733,-632.046 233.733,-626.046 239.733,-626.046"/>
<text text-anchor="middle" x="299.733" y="-823.846" font-family="Times,serif" font-size="14.00">CommandesController</text>
<polyline fill="none" stroke="black" points="227.733,-816.046 371.733,-816.046 "/>
<text text-anchor="start" x="235.733" y="-800.846" font-family="Times,serif" font-size="14.00">create</text>
<text text-anchor="start" x="235.733" y="-785.846" font-family="Times,serif" font-size="14.00">destroy</text>
<text text-anchor="start" x="235.733" y="-770.846" font-family="Times,serif" font-size="14.00">edit</text>
<text text-anchor="start" x="235.733" y="-755.846" font-family="Times,serif" font-size="14.00">index</text>
<text text-anchor="start" x="235.733" y="-740.846" font-family="Times,serif" font-size="14.00">new</text>
<text text-anchor="start" x="235.733" y="-725.846" font-family="Times,serif" font-size="14.00">show</text>
<text text-anchor="start" x="235.733" y="-710.846" font-family="Times,serif" font-size="14.00">update</text>
<polyline fill="none" stroke="black" points="227.733,-703.046 371.733,-703.046 "/>
<polyline fill="none" stroke="black" points="227.733,-679.046 371.733,-679.046 "/>
<text text-anchor="start" x="235.733" y="-663.846" font-family="Times,serif" font-size="14.00">_layout</text>
<text text-anchor="start" x="235.733" y="-648.846" font-family="Times,serif" font-size="14.00">commande_params</text>
<text text-anchor="start" x="235.733" y="-633.846" font-family="Times,serif" font-size="14.00">set_commande</text>
</g>
<!-- ApplicationController&#45;&gt;CommandesController -->
<g id="edge3" class="edge"><title>ApplicationController&#45;&gt;CommandesController</title>
<path fill="none" stroke="black" d="M304.072,-472.452C303.394,-513.085 302.385,-573.574 301.51,-625.995"/>
</g>
<!-- CouleursController -->
<g id="node6" class="node"><title>CouleursController</title>
<path fill="none" stroke="black" d="M475.917,-642.36C475.917,-642.36 576.917,-642.36 576.917,-642.36 582.917,-642.36 588.917,-648.36 588.917,-654.36 588.917,-654.36 588.917,-843.36 588.917,-843.36 588.917,-849.36 582.917,-855.36 576.917,-855.36 576.917,-855.36 475.917,-855.36 475.917,-855.36 469.917,-855.36 463.917,-849.36 463.917,-843.36 463.917,-843.36 463.917,-654.36 463.917,-654.36 463.917,-648.36 469.917,-642.36 475.917,-642.36"/>
<text text-anchor="middle" x="526.417" y="-840.16" font-family="Times,serif" font-size="14.00">CouleursController</text>
<polyline fill="none" stroke="black" points="463.917,-832.36 588.917,-832.36 "/>
<text text-anchor="start" x="471.917" y="-817.16" font-family="Times,serif" font-size="14.00">create</text>
<text text-anchor="start" x="471.917" y="-802.16" font-family="Times,serif" font-size="14.00">destroy</text>
<text text-anchor="start" x="471.917" y="-787.16" font-family="Times,serif" font-size="14.00">edit</text>
<text text-anchor="start" x="471.917" y="-772.16" font-family="Times,serif" font-size="14.00">index</text>
<text text-anchor="start" x="471.917" y="-757.16" font-family="Times,serif" font-size="14.00">new</text>
<text text-anchor="start" x="471.917" y="-742.16" font-family="Times,serif" font-size="14.00">show</text>
<text text-anchor="start" x="471.917" y="-727.16" font-family="Times,serif" font-size="14.00">update</text>
<polyline fill="none" stroke="black" points="463.917,-719.36 588.917,-719.36 "/>
<polyline fill="none" stroke="black" points="463.917,-695.36 588.917,-695.36 "/>
<text text-anchor="start" x="471.917" y="-680.16" font-family="Times,serif" font-size="14.00">_layout</text>
<text text-anchor="start" x="471.917" y="-665.16" font-family="Times,serif" font-size="14.00">couleur_params</text>
<text text-anchor="start" x="471.917" y="-650.16" font-family="Times,serif" font-size="14.00">set_couleur</text>
</g>
<!-- ApplicationController&#45;&gt;CouleursController -->
<g id="edge4" class="edge"><title>ApplicationController&#45;&gt;CouleursController</title>
<path fill="none" stroke="black" d="M336.83,-472.495C369.907,-520.712 422.414,-597.253 463.792,-657.571"/>
</g>
<!-- ModelesController -->
<g id="node7" class="node"><title>ModelesController</title>
<path fill="none" stroke="black" d="M12,-674.068C12,-674.068 110,-674.068 110,-674.068 116,-674.068 122,-680.068 122,-686.068 122,-686.068 122,-875.068 122,-875.068 122,-881.068 116,-887.068 110,-887.068 110,-887.068 12,-887.068 12,-887.068 6,-887.068 0,-881.068 0,-875.068 0,-875.068 0,-686.068 0,-686.068 0,-680.068 6,-674.068 12,-674.068"/>
<text text-anchor="middle" x="61" y="-871.868" font-family="Times,serif" font-size="14.00">ModelesController</text>
<polyline fill="none" stroke="black" points="0,-864.068 122,-864.068 "/>
<text text-anchor="start" x="8" y="-848.868" font-family="Times,serif" font-size="14.00">create</text>
<text text-anchor="start" x="8" y="-833.868" font-family="Times,serif" font-size="14.00">destroy</text>
<text text-anchor="start" x="8" y="-818.868" font-family="Times,serif" font-size="14.00">edit</text>
<text text-anchor="start" x="8" y="-803.868" font-family="Times,serif" font-size="14.00">index</text>
<text text-anchor="start" x="8" y="-788.868" font-family="Times,serif" font-size="14.00">new</text>
<text text-anchor="start" x="8" y="-773.868" font-family="Times,serif" font-size="14.00">show</text>
<text text-anchor="start" x="8" y="-758.868" font-family="Times,serif" font-size="14.00">update</text>
<polyline fill="none" stroke="black" points="0,-751.068 122,-751.068 "/>
<polyline fill="none" stroke="black" points="0,-727.068 122,-727.068 "/>
<text text-anchor="start" x="8" y="-711.868" font-family="Times,serif" font-size="14.00">_layout</text>
<text text-anchor="start" x="8" y="-696.868" font-family="Times,serif" font-size="14.00">modele_params</text>
<text text-anchor="start" x="8" y="-681.868" font-family="Times,serif" font-size="14.00">set_modele</text>
</g>
<!-- ApplicationController&#45;&gt;ModelesController -->
<g id="edge5" class="edge"><title>ApplicationController&#45;&gt;ModelesController</title>
<path fill="none" stroke="black" d="M272.719,-472.61C234.503,-528.198 169.876,-622.202 122.054,-691.762"/>
</g>
<!-- PatronsController -->
<g id="node8" class="node"><title>PatronsController</title>
<path fill="none" stroke="black" d="M18.9552,-229.045C18.9552,-229.045 110.955,-229.045 110.955,-229.045 116.955,-229.045 122.955,-235.045 122.955,-241.045 122.955,-241.045 122.955,-415.045 122.955,-415.045 122.955,-421.045 116.955,-427.045 110.955,-427.045 110.955,-427.045 18.9552,-427.045 18.9552,-427.045 12.9552,-427.045 6.95519,-421.045 6.95519,-415.045 6.95519,-415.045 6.95519,-241.045 6.95519,-241.045 6.95519,-235.045 12.9552,-229.045 18.9552,-229.045"/>
<text text-anchor="middle" x="64.9552" y="-411.845" font-family="Times,serif" font-size="14.00">PatronsController</text>
<polyline fill="none" stroke="black" points="6.95519,-404.045 122.955,-404.045 "/>
<text text-anchor="start" x="14.9552" y="-388.845" font-family="Times,serif" font-size="14.00">destroy</text>
<text text-anchor="start" x="14.9552" y="-373.845" font-family="Times,serif" font-size="14.00">edit</text>
<text text-anchor="start" x="14.9552" y="-358.845" font-family="Times,serif" font-size="14.00">index</text>
<text text-anchor="start" x="14.9552" y="-343.845" font-family="Times,serif" font-size="14.00">new</text>
<text text-anchor="start" x="14.9552" y="-328.845" font-family="Times,serif" font-size="14.00">show</text>
<text text-anchor="start" x="14.9552" y="-313.845" font-family="Times,serif" font-size="14.00">update</text>
<polyline fill="none" stroke="black" points="6.95519,-306.045 122.955,-306.045 "/>
<polyline fill="none" stroke="black" points="6.95519,-282.045 122.955,-282.045 "/>
<text text-anchor="start" x="14.9552" y="-266.845" font-family="Times,serif" font-size="14.00">_layout</text>
<text text-anchor="start" x="14.9552" y="-251.845" font-family="Times,serif" font-size="14.00">patron_params</text>
<text text-anchor="start" x="14.9552" y="-236.845" font-family="Times,serif" font-size="14.00">set_patron</text>
</g>
<!-- ApplicationController&#45;&gt;PatronsController -->
<g id="edge6" class="edge"><title>ApplicationController&#45;&gt;PatronsController</title>
<path fill="none" stroke="black" d="M234.817,-397.316C199.413,-382.878 156.948,-365.56 123.333,-351.852"/>
</g>
<!-- ProductionsController -->
<g id="node9" class="node"><title>ProductionsController</title>
<path fill="none" stroke="black" d="M470.305,-365.754C470.305,-365.754 587.305,-365.754 587.305,-365.754 593.305,-365.754 599.305,-371.754 599.305,-377.754 599.305,-377.754 599.305,-521.754 599.305,-521.754 599.305,-527.754 593.305,-533.754 587.305,-533.754 587.305,-533.754 470.305,-533.754 470.305,-533.754 464.305,-533.754 458.305,-527.754 458.305,-521.754 458.305,-521.754 458.305,-377.754 458.305,-377.754 458.305,-371.754 464.305,-365.754 470.305,-365.754"/>
<text text-anchor="middle" x="528.805" y="-518.554" font-family="Times,serif" font-size="14.00">ProductionsController</text>
<polyline fill="none" stroke="black" points="458.305,-510.754 599.305,-510.754 "/>
<text text-anchor="start" x="466.305" y="-495.554" font-family="Times,serif" font-size="14.00">destroy</text>
<text text-anchor="start" x="466.305" y="-480.554" font-family="Times,serif" font-size="14.00">index</text>
<text text-anchor="start" x="466.305" y="-465.554" font-family="Times,serif" font-size="14.00">new</text>
<text text-anchor="start" x="466.305" y="-450.554" font-family="Times,serif" font-size="14.00">show</text>
<polyline fill="none" stroke="black" points="458.305,-442.754 599.305,-442.754 "/>
<polyline fill="none" stroke="black" points="458.305,-418.754 599.305,-418.754 "/>
<text text-anchor="start" x="466.305" y="-403.554" font-family="Times,serif" font-size="14.00">_layout</text>
<text text-anchor="start" x="466.305" y="-388.554" font-family="Times,serif" font-size="14.00">production_params</text>
<text text-anchor="start" x="466.305" y="-373.554" font-family="Times,serif" font-size="14.00">set_production</text>
</g>
<!-- ApplicationController&#45;&gt;ProductionsController -->
<g id="edge7" class="edge"><title>ApplicationController&#45;&gt;ProductionsController</title>
<path fill="none" stroke="black" d="M375.096,-433.365C401.521,-436.183 431.565,-439.386 458.038,-442.209"/>
</g>
<!-- StocksController -->
<g id="node10" class="node"><title>StocksController</title>
<path fill="none" stroke="black" d="M15.1648,-0.5C15.1648,-0.5 102.165,-0.5 102.165,-0.5 108.165,-0.5 114.165,-6.5 114.165,-12.5 114.165,-12.5 114.165,-186.5 114.165,-186.5 114.165,-192.5 108.165,-198.5 102.165,-198.5 102.165,-198.5 15.1648,-198.5 15.1648,-198.5 9.16479,-198.5 3.16479,-192.5 3.16479,-186.5 3.16479,-186.5 3.16479,-12.5 3.16479,-12.5 3.16479,-6.5 9.16479,-0.5 15.1648,-0.5"/>
<text text-anchor="middle" x="58.6648" y="-183.3" font-family="Times,serif" font-size="14.00">StocksController</text>
<polyline fill="none" stroke="black" points="3.16479,-175.5 114.165,-175.5 "/>
<text text-anchor="start" x="11.1648" y="-160.3" font-family="Times,serif" font-size="14.00">create</text>
<text text-anchor="start" x="11.1648" y="-145.3" font-family="Times,serif" font-size="14.00">edit</text>
<text text-anchor="start" x="11.1648" y="-130.3" font-family="Times,serif" font-size="14.00">index</text>
<text text-anchor="start" x="11.1648" y="-115.3" font-family="Times,serif" font-size="14.00">new</text>
<text text-anchor="start" x="11.1648" y="-100.3" font-family="Times,serif" font-size="14.00">show</text>
<text text-anchor="start" x="11.1648" y="-85.3" font-family="Times,serif" font-size="14.00">update</text>
<polyline fill="none" stroke="black" points="3.16479,-77.5 114.165,-77.5 "/>
<polyline fill="none" stroke="black" points="3.16479,-53.5 114.165,-53.5 "/>
<text text-anchor="start" x="11.1648" y="-38.3" font-family="Times,serif" font-size="14.00">_layout</text>
<text text-anchor="start" x="11.1648" y="-23.3" font-family="Times,serif" font-size="14.00">set_stock</text>
<text text-anchor="start" x="11.1648" y="-8.3" font-family="Times,serif" font-size="14.00">stock_params</text>
</g>
<!-- ApplicationController&#45;&gt;StocksController -->
<g id="edge8" class="edge"><title>ApplicationController&#45;&gt;StocksController</title>
<path fill="none" stroke="black" d="M269.577,-379.114C229.026,-325.354 161.943,-236.42 114.328,-173.295"/>
</g>
<!-- VersionsController -->
<g id="node11" class="node"><title>VersionsController</title>
<path fill="none" stroke="black" d="M477.962,-34.6116C477.962,-34.6116 577.962,-34.6116 577.962,-34.6116 583.962,-34.6116 589.962,-40.6116 589.962,-46.6116 589.962,-46.6116 589.962,-235.612 589.962,-235.612 589.962,-241.612 583.962,-247.612 577.962,-247.612 577.962,-247.612 477.962,-247.612 477.962,-247.612 471.962,-247.612 465.962,-241.612 465.962,-235.612 465.962,-235.612 465.962,-46.6116 465.962,-46.6116 465.962,-40.6116 471.962,-34.6116 477.962,-34.6116"/>
<text text-anchor="middle" x="527.962" y="-232.412" font-family="Times,serif" font-size="14.00">VersionsController</text>
<polyline fill="none" stroke="black" points="465.962,-224.612 589.962,-224.612 "/>
<text text-anchor="start" x="473.962" y="-209.412" font-family="Times,serif" font-size="14.00">create</text>
<text text-anchor="start" x="473.962" y="-194.412" font-family="Times,serif" font-size="14.00">destroy</text>
<text text-anchor="start" x="473.962" y="-179.412" font-family="Times,serif" font-size="14.00">edit</text>
<text text-anchor="start" x="473.962" y="-164.412" font-family="Times,serif" font-size="14.00">index</text>
<text text-anchor="start" x="473.962" y="-149.412" font-family="Times,serif" font-size="14.00">new</text>
<text text-anchor="start" x="473.962" y="-134.412" font-family="Times,serif" font-size="14.00">show</text>
<text text-anchor="start" x="473.962" y="-119.412" font-family="Times,serif" font-size="14.00">update</text>
<polyline fill="none" stroke="black" points="465.962,-111.612 589.962,-111.612 "/>
<polyline fill="none" stroke="black" points="465.962,-87.6116 589.962,-87.6116 "/>
<text text-anchor="start" x="473.962" y="-72.4116" font-family="Times,serif" font-size="14.00">_layout</text>
<text text-anchor="start" x="473.962" y="-57.4116" font-family="Times,serif" font-size="14.00">set_version</text>
<text text-anchor="start" x="473.962" y="-42.4116" font-family="Times,serif" font-size="14.00">version_params</text>
</g>
<!-- ApplicationController&#45;&gt;VersionsController -->
<g id="edge9" class="edge"><title>ApplicationController&#45;&gt;VersionsController</title>
<path fill="none" stroke="black" d="M341.442,-379.172C375.13,-336.175 425.794,-271.512 465.82,-220.425"/>
</g>
</g>
</svg>
